<?xml version="1.0" encoding="UTF-8"?>
<svg version="1.1" xmlns="http://www.w3.org/2000/svg" width="218" height="214">
<path d="M0 0 C71.94 0 143.88 0 218 0 C218 70.62 218 141.24 218 214 C146.06 214 74.12 214 0 214 C0 143.38 0 72.76 0 0 Z " fill="#FEFEFE" transform="translate(0,0)"/>
<path d="M0 0 C23.85582849 -0.12032643 23.85582849 -0.12032643 34.10351562 -0.14648438 C41.06851139 -0.16434792 48.0333877 -0.18537365 54.99829102 -0.22631836 C60.61987547 -0.25915547 66.24133165 -0.27690392 71.86300468 -0.28463173 C73.9969732 -0.29013184 76.1309355 -0.30087086 78.26484871 -0.31719017 C99.76425383 -0.4749194 118.64480538 1.22619723 134.94067383 16.81274414 C148.32410201 30.15073546 155.98138796 46.604104 156.4375 65.5625 C155.79958126 84.00415074 150.07637335 100.33764962 136.890625 113.4296875 C132.05332122 117.73096572 126.78043207 121.10978396 121 124 C122.59797029 127.86252247 125.22169251 130.58192517 128.0625 133.5625 C132.43077254 138.23362993 136.54219371 143.03627283 140.5546875 148.01953125 C143.47003577 151.57290303 146.47806552 155.03728516 149.5 158.5 C154.79313163 164.5689224 159.95135102 170.72506418 165 177 C157.17959167 185.15201575 147.9748077 190.25936053 136.5859375 191.19921875 C131.0846525 191.01962354 127.9190114 188.9833312 124.0234375 185.2109375 C120.98546248 181.89145128 118.16036063 178.42289293 115.359375 174.90234375 C112.1640587 170.97168148 108.74971473 167.26490761 105.32421875 163.53515625 C101.14107231 158.97236291 97.10537127 154.28399653 93.06640625 149.59375 C86.95534693 142.50645971 80.77238005 135.51031454 74.421875 128.63671875 C71.81729903 125.80109168 69.27576809 122.9197165 66.76171875 120.00390625 C65.41298309 118.46975682 64.03494403 116.96132451 62.64453125 115.46484375 C61.83371094 114.58957031 61.02289063 113.71429688 60.1875 112.8125 C59.06408203 111.61560547 59.06408203 111.61560547 57.91796875 110.39453125 C55.97978861 107.97476664 55.07815639 105.87917104 54 103 C55.64814697 102.97812622 55.64814697 102.97812622 57.32958984 102.95581055 C61.44871805 102.89735957 65.56732604 102.82013419 69.68603516 102.73754883 C71.46068815 102.70451779 73.23544069 102.67641965 75.01025391 102.65356445 C88.79368907 102.47128492 99.34570358 101.92343714 110.5 93 C118.75403287 83.09516056 120.29491154 73.61315196 119.25537109 61.10986328 C118.26958947 52.96538454 114.2223352 46.2831148 108 41 C101.81535311 37.22153792 96.24390669 34.8979865 88.96801758 34.79467773 C87.72695755 34.77473251 86.48589752 34.75478729 85.20722961 34.73423767 C83.8529981 34.71725473 82.49876527 34.70037587 81.14453125 34.68359375 C79.75875741 34.66301772 78.37298975 34.64202108 76.98722839 34.62062073 C73.34259047 34.56546699 69.69789654 34.51602826 66.05316162 34.46777344 C62.3329165 34.41750944 58.61275257 34.36184896 54.89257812 34.30664062 C47.59511896 34.19914098 40.29759164 34.09817671 33 34 C33 42.25 33 50.5 33 59 C29.2195649 60.26014503 26.87795389 59.81641135 23 59 C22.37867187 58.49726562 21.75734375 57.99453125 21.1171875 57.4765625 C17.23465355 54.76881742 12.54706569 55.4662434 8 56 C5.09369632 57.4230984 5.09369632 57.4230984 3 59 C2.01 58.67 1.02 58.34 0 58 C0 38.86 0 19.72 0 0 Z " fill="#3C3D20" transform="translate(39,14)"/>
<path d="M0 0 C0.33 0 0.66 0 1 0 C1.33 18.81 1.66 37.62 2 57 C7.47825081 55.67082039 7.47825081 55.67082039 9 54 C10.76628086 53.84818743 12.53993085 53.77817328 14.3125 53.75 C15.27800781 53.72421875 16.24351563 53.6984375 17.23828125 53.671875 C20.43011704 54.05110301 21.50411406 55.08047327 24 57 C26.3529935 57.27789787 26.3529935 57.27789787 28.8125 57.1875 C31.96554591 57.41006795 33.54218562 57.6337485 36.03125 59.625 C37.80641858 61.68045835 39.40962632 63.79950854 41 66 C41.91091943 67.00523806 42.82702661 68.00581798 43.75 69 C49.01057911 76.01410548 49.42735432 82.38960184 49 91 C48.35160156 91.25394531 47.70320313 91.50789063 47.03515625 91.76953125 C46.36355469 92.17558594 45.69195312 92.58164063 45 93 C44.70355806 94.94334162 44.42126512 96.89191186 44.265625 98.8515625 C43.84760751 102.23258629 42.49213313 104.96046955 41 108 C40.71125 108.59941406 40.4225 109.19882813 40.125 109.81640625 C38.4323894 113.0817342 36.76553834 115.38772862 33.875 117.6875 C30.96646245 119.69816207 30.96646245 119.69816207 29.9375 122.125 C29 124 29 124 26.5625 125.375 C23.33658987 127.42069911 22.46286636 129.53531653 21 133 C17.61370242 131.54872961 15.51146089 129.67349063 13 127 C12.51660156 126.54109375 12.03320312 126.0821875 11.53515625 125.609375 C9.9089336 123.9045309 8.73377729 122.1923881 7.5 120.1875 C7.06300781 119.48238281 6.62601563 118.77726562 6.17578125 118.05078125 C5 116 5 116 3.6875 112.875 C1.95077933 109.91614256 0.75922267 108.96731856 -2 107.0625 C-6.63824596 103.78594092 -8.39843403 100.42291039 -9.390625 94.77734375 C-9.64788559 92.85804435 -9.83078451 90.92905658 -10 89 C-12.25556604 89.73577288 -14.50338357 90.48775514 -16.75 91.25 C-17.38421875 91.45496094 -18.0184375 91.65992187 -18.671875 91.87109375 C-22.73225755 93.26685025 -25.12387837 94.85508195 -28 98 C-28.66 98 -29.32 98 -30 98 C-30.08825361 94.52099751 -30.14080635 91.04228883 -30.1875 87.5625 C-30.21263672 86.58861328 -30.23777344 85.61472656 -30.26367188 84.61132812 C-30.37315125 73.69988383 -27.11053147 63.31277128 -19.34765625 55.29296875 C-15.17083054 51.74930488 -12.61800818 50.88270825 -7.16796875 50.671875 C-5 51 -5 51 0 54 C0 36.18 0 18.36 0 0 Z " fill="#E9C783" transform="translate(38,15)"/>
<path d="M0 0 C4.63975825 -0.4217962 7.92723652 0.80697351 12 3 C12.875 4.875 12.875 4.875 13 7 C13.185625 7.9075 13.37125 8.815 13.5625 9.75 C13.706875 10.4925 13.85125 11.235 14 12 C14.99 12.33 15.98 12.66 17 13 C18.25 14.875 18.25 14.875 19 17 C18.67 17.99 18.34 18.98 18 20 C17.01 19.34 16.02 18.68 15 18 C15.495 18.45375 15.99 18.9075 16.5 19.375 C18 21 18 21 18 23 C17.01 23 16.02 23 15 23 C13.61876037 21.03277992 12.28511874 19.03131672 11 17 C10.34 16.67 9.68 16.34 9 16 C11.12290079 18.75190844 12.88947849 20.92213257 15.75 22.9375 C19.52490096 28.07555964 18.91100965 33.86304354 18 40 C16.64269524 42.92231095 15.20482982 44.58006483 13 47 C12.67 47.99 12.34 48.98 12 50 C10.03814584 51.71140469 8.03697617 53.37873325 6 55 C5.34 55.66 4.68 56.32 4 57 C3.74605469 56.43410156 3.49210937 55.86820313 3.23046875 55.28515625 C2.88628906 54.55167969 2.54210937 53.81820312 2.1875 53.0625 C1.85105469 52.33160156 1.51460937 51.60070312 1.16796875 50.84765625 C0.06399866 48.66970511 0.06399866 48.66970511 -3 48 C-3 48.66 -3 49.32 -3 50 C-1.68 50.66 -0.36 51.32 1 52 C1.36923077 56.55384615 1.36923077 56.55384615 -0.5 58.8125 C-1.2425 59.4003125 -1.2425 59.4003125 -2 60 C-2.33 58.68 -2.66 57.36 -3 56 C-3.99 56.495 -3.99 56.495 -5 57 C-5 52.71 -5 48.42 -5 44 C-4.01 44 -3.02 44 -2 44 C-2 41.03 -2 38.06 -2 35 C-2.66 35 -3.32 35 -4 35 C-4.33773437 34.30132812 -4.67546875 33.60265625 -5.0234375 32.8828125 C-5.46945313 31.97273438 -5.91546875 31.06265625 -6.375 30.125 C-7.03628906 28.76761719 -7.03628906 28.76761719 -7.7109375 27.3828125 C-8.90502699 24.90465528 -8.90502699 24.90465528 -11 23 C-11.41333058 15.18805202 -8.95690533 8.11032585 -6 1 C-5.67 1 -5.34 1 -5 1 C-4.92572162 4.34252724 -4.93453047 6.8035914 -6 10 C-5.34 9.01 -4.68 8.02 -4 7 C-3.34 7 -2.68 7 -2 7 C-2 7.99 -2 8.98 -2 10 C-1.34 10 -0.68 10 0 10 C0 8.68 0 7.36 0 6 C-0.66 5.67 -1.32 5.34 -2 5 C-1.67 4.360625 -1.34 3.72125 -1 3.0625 C0.07271225 1.23205433 0.07271225 1.23205433 0 0 Z " fill="#E8C47F" transform="translate(63,80)"/>
<path d="M0 0 C0.33 0 0.66 0 1 0 C1.01213028 1.05449593 1.01213028 1.05449593 1.02450562 2.1302948 C1.10255112 8.76587067 1.18987159 15.40125272 1.28752708 22.03657055 C1.33740404 25.44759771 1.38373441 28.8585952 1.421875 32.26977539 C1.46591305 36.1943487 1.52552919 40.11861191 1.5859375 44.04296875 C1.59748871 45.26396774 1.60903992 46.48496674 1.62094116 47.7429657 C1.64081085 48.8837709 1.66068054 50.02457611 1.68115234 51.19995117 C1.69447601 52.20144699 1.70779968 53.20294281 1.7215271 54.23478699 C2.01483223 57.14728285 2.78503997 59.35022192 4 62 C3.40574219 62.07476562 2.81148437 62.14953125 2.19921875 62.2265625 C-5.32702365 63.42046098 -13.11289399 65.92205416 -18.51171875 71.5859375 C-19.72567057 73.28963711 -19.72567057 73.28963711 -21 76 C-21.61875 77.175625 -21.61875 77.175625 -22.25 78.375 C-22.4975 78.91125 -22.745 79.4475 -23 80 C-23.66 80 -24.32 80 -25 80 C-25.33 81.98 -25.66 83.96 -26 86 C-25.01 86 -24.02 86 -23 86 C-23 84.35 -23 82.7 -23 81 C-21.68 81.66 -20.36 82.32 -19 83 C-18.505 82.01 -18.505 82.01 -18 81 C-15.9375 80.375 -15.9375 80.375 -14 80 C-14 78.68 -14 77.36 -14 76 C-13.34 75.01 -12.68 74.02 -12 73 C-9.375 72.8125 -9.375 72.8125 -7 73 C-7.33 72.01 -7.66 71.02 -8 70 C-2.5 66 -2.5 66 2 66 C3.75 67.5 3.75 67.5 5 69 C4.1875 71.9375 4.1875 71.9375 3 75 C1.515 75.495 1.515 75.495 0 76 C0 76.99 0 77.98 0 79 C-3.465 79.495 -3.465 79.495 -7 80 C-7.33 80.99 -7.66 81.98 -8 83 C-7.34 83 -6.68 83 -6 83 C-6 83.66 -6 84.32 -6 85 C-6.639375 85.28875 -7.27875 85.5775 -7.9375 85.875 C-10.15206079 86.82823451 -10.15206079 86.82823451 -11 89 C-14.2269889 90.32320047 -17.50627324 91.4422673 -20.80078125 92.5859375 C-24.02102364 94.0092925 -25.63740031 95.45898889 -28 98 C-28.66 98 -29.32 98 -30 98 C-30.08825361 94.52099751 -30.14080635 91.04228883 -30.1875 87.5625 C-30.21263672 86.58861328 -30.23777344 85.61472656 -30.26367188 84.61132812 C-30.37315125 73.69988383 -27.11053147 63.31277128 -19.34765625 55.29296875 C-15.17083054 51.74930488 -12.61800818 50.88270825 -7.16796875 50.671875 C-5 51 -5 51 0 54 C0 36.18 0 18.36 0 0 Z " fill="#E7C47F" transform="translate(38,15)"/>
<path d="M0 0 C1.98 0.495 1.98 0.495 4 1 C4.33 2.98 4.66 4.96 5 7 C5.66 7 6.32 7 7 7 C7.84026396 8.76755526 8.67198722 10.53917263 9.5 12.3125 C9.9640625 13.29863281 10.428125 14.28476563 10.90625 15.30078125 C12 18 12 18 12 21 C12.66 21 13.32 21 14 21 C14.20140476 17.37471432 13.85776765 15.13498292 12 12 C15.465 13.485 15.465 13.485 19 15 C19 13.02 19 11.04 19 9 C18.67 9.66 18.34 10.32 18 11 C17.34 11 16.68 11 16 11 C15.67 11.66 15.34 12.32 15 13 C14.34 9.7 13.68 6.4 13 3 C19.66666667 4.66666667 19.66666667 4.66666667 22 7 C22.13568319 10.66344611 22.16461426 13.50615721 21 17 C20.01 17.33 19.02 17.66 18 18 C21.1113395 19.00007341 22.88833588 18.87515553 26 18 C27.32 18 28.64 18 30 18 C29.690625 18.5775 29.38125 19.155 29.0625 19.75 C27.27786827 23.52922013 26.86230413 26.83575587 26.875 31 C26.87242188 31.845625 26.86984375 32.69125 26.8671875 33.5625 C26.99166289 35.84698944 27.36122543 37.80991574 28 40 C28.66 40 29.32 40 30 40 C29.67 42.31 29.34 44.62 29 47 C25.61370242 45.54872961 23.51146089 43.67349063 21 41 C20.51660156 40.54109375 20.03320312 40.0821875 19.53515625 39.609375 C17.9089336 37.9045309 16.73377729 36.1923881 15.5 34.1875 C14.84451172 33.12982422 14.84451172 33.12982422 14.17578125 32.05078125 C13 30 13 30 11.6875 26.875 C9.95077933 23.91614256 8.75922267 22.96731856 6 21.0625 C1.95545446 18.17247482 0.22167771 15.968156 -1 11 C-0.92974126 7.28632375 -0.55101385 3.67121274 0 0 Z " fill="#E6C37F" transform="translate(30,101)"/>
<path d="M0 0 C0.99 0 1.98 0 3 0 C3.12375 1.5778125 3.12375 1.5778125 3.25 3.1875 C4.07600725 7.38637021 5.24085184 8.83509475 8 12 C9 14 10 16 11 18 C11.66 18.33 12.32 18.66 13 19 C13 22.3 13 25.6 13 29 C12.01 28.67 11.02 28.34 10 28 C9.91885894 29.77007714 9.86074495 31.54122098 9.8125 33.3125 C9.77769531 34.29863281 9.74289063 35.28476563 9.70703125 36.30078125 C9.75721892 39.04574389 9.75721892 39.04574389 11.51171875 40.85546875 C12.00285156 41.23316406 12.49398437 41.61085937 13 42 C14.26472065 40.94570314 14.26472065 40.94570314 14.25 38.5625 C14.1675 37.716875 14.085 36.87125 14 36 C13.01 35.34 12.02 34.68 11 34 C11 33.34 11 32.68 11 32 C12.859375 32.21484375 12.859375 32.21484375 15 33 C16.265625 35.06640625 16.265625 35.06640625 17.25 37.5625 C17.58515625 38.38878906 17.9203125 39.21507812 18.265625 40.06640625 C18.62914062 41.02353516 18.62914062 41.02353516 19 42 C17.576875 42.928125 17.576875 42.928125 16.125 43.875 C13.05554891 45.81970969 13.05554891 45.81970969 11 48 C11 47.01 11 46.02 11 45 C10.34 45 9.68 45 9 45 C8.67 45.66 8.34 46.32 8 47 C6.5440023 40.08401093 5.67336113 32.4575931 9 26 C9.33 25.01 9.66 24.02 10 23 C9.401875 23.33 8.80375 23.66 8.1875 24 C6 25 6 25 3 25 C2.67 26.32 2.34 27.64 2 29 C2 27.35 2 25.7 2 24 C0.68 23.67 -0.64 23.34 -2 23 C-1.67 22.34 -1.34 21.68 -1 21 C-0.01 21.33 0.98 21.66 2 22 C2 18.7 2 15.4 2 12 C0.35 11.67 -1.3 11.34 -3 11 C-3 10.34 -3 9.68 -3 9 C-4.32 8.34 -5.64 7.68 -7 7 C-6 6 -6 6 -3.4375 5.9375 C-2.2309375 5.9684375 -2.2309375 5.9684375 -1 6 C-0.67 4.02 -0.34 2.04 0 0 Z " fill="#F3DEAD" transform="translate(49,96)"/>
<path d="M0 0 C12.69125577 -0.02316392 25.38250651 -0.04093579 38.07377911 -0.05181217 C43.96675551 -0.05703211 49.85971746 -0.06411369 55.75268555 -0.07543945 C61.43905085 -0.08629983 67.12540224 -0.09228354 72.81177711 -0.09487724 C74.9819034 -0.0967258 77.15202891 -0.1003355 79.32214928 -0.10573006 C82.3602094 -0.11298223 85.39821192 -0.11398917 88.4362793 -0.11352539 C89.33467529 -0.11712067 90.23307129 -0.12071594 91.15869141 -0.12442017 C95.23880014 -0.11767447 99.02033206 -0.03118879 103 1 C103 1.33 103 1.66 103 2 C69.34 2 35.68 2 1 2 C1.33 19.82 1.66 37.64 2 56 C3.32 56.33 4.64 56.66 6 57 C4.35 57.66 2.7 58.32 1 59 C0 58 0 58 -0.12025452 55.67784119 C-0.11803391 54.64969803 -0.11581329 53.62155487 -0.11352539 52.56225586 C-0.11344986 51.40112778 -0.11337433 50.23999969 -0.11329651 49.04368591 C-0.10813522 47.780168 -0.10297394 46.51665009 -0.09765625 45.21484375 C-0.0962413 43.92888809 -0.09482635 42.64293243 -0.09336853 41.31800842 C-0.08954418 37.89356557 -0.07971462 34.46916491 -0.06866455 31.04473877 C-0.05844864 27.55261811 -0.05387053 24.06049066 -0.04882812 20.56835938 C-0.03809227 13.71222222 -0.02101684 6.85611313 0 0 Z " fill="#232311" transform="translate(39,14)"/>
<path d="M0 0 C0.33 0 0.66 0 1 0 C1.01213028 1.05449593 1.01213028 1.05449593 1.02450562 2.1302948 C1.10255112 8.76587067 1.18987159 15.40125272 1.28752708 22.03657055 C1.33740404 25.44759771 1.38373441 28.8585952 1.421875 32.26977539 C1.46591305 36.1943487 1.52552919 40.11861191 1.5859375 44.04296875 C1.59748871 45.26396774 1.60903992 46.48496674 1.62094116 47.7429657 C1.64081085 48.8837709 1.66068054 50.02457611 1.68115234 51.19995117 C1.69447601 52.20144699 1.70779968 53.20294281 1.7215271 54.23478699 C2.01483223 57.14728285 2.78503997 59.35022192 4 62 C3.40574219 62.08636719 2.81148437 62.17273438 2.19921875 62.26171875 C-4.78072914 63.44494475 -10.68052483 65.85227662 -17 69 C-17.66 68.34 -18.32 67.68 -19 67 C-18.505 66.01 -18.505 66.01 -18 65 C-18.66 64.67 -19.32 64.34 -20 64 C-19.07456291 62.65826597 -18.13422595 61.32679841 -17.1875 60 C-16.66542969 59.2575 -16.14335937 58.515 -15.60546875 57.75 C-15.07566406 57.1725 -14.54585937 56.595 -14 56 C-13.01 56 -12.02 56 -11 56 C-10.34 55.34 -9.68 54.68 -9 54 C-6.875 54.375 -6.875 54.375 -5 55 C-4.67 54.34 -4.34 53.68 -4 53 C-2.68 53.33 -1.36 53.66 0 54 C0 36.18 0 18.36 0 0 Z " fill="#CBB079" transform="translate(38,15)"/>
<path d="M0 0 C0 0.66 0 1.32 0 2 C0.99 2 1.98 2 3 2 C3 2.66 3 3.32 3 4 C-0.96 5.98 -0.96 5.98 -5 8 C-5 8.99 -5 9.98 -5 11 C-6.65 11 -8.3 11 -10 11 C-10.309375 11.61875 -10.61875 12.2375 -10.9375 12.875 C-11.625 14.25 -12.3125 15.625 -13 17 C-12.34 17.33 -11.68 17.66 -11 18 C-13.57781906 20.57781906 -15.4401839 20.62129616 -19 21 C-19.33 20.67 -19.66 20.34 -20 20 C-20.33 21.32 -20.66 22.64 -21 24 C-21.99 24 -22.98 24 -24 24 C-23.625 21.0625 -23.625 21.0625 -23 18 C-22.34 17.67 -21.68 17.34 -21 17 C-20.54625 16.0925 -20.0925 15.185 -19.625 14.25 C-16.72048013 8.44096027 -13.74893434 5.48014446 -7.875 2.6875 C-6.82054688 2.17574219 -5.76609375 1.66398437 -4.6796875 1.13671875 C-2 0 -2 0 0 0 Z " fill="#EBCC8D" transform="translate(36,77)"/>
<path d="M0 0 C0.99 0.33 1.98 0.66 3 1 C2.690625 1.5775 2.38125 2.155 2.0625 2.75 C0.27786827 6.52922013 -0.13769587 9.83575587 -0.125 14 C-0.12757812 14.845625 -0.13015625 15.69125 -0.1328125 16.5625 C-0.00833711 18.84698944 0.36122543 20.80991574 1 23 C1.66 23 2.32 23 3 23 C2.67 25.31 2.34 27.62 2 30 C-1.38629758 28.54872961 -3.48853911 26.67349063 -6 24 C-6.515625 23.505 -7.03125 23.01 -7.5625 22.5 C-8.036875 22.005 -8.51125 21.51 -9 21 C-9.53625 20.443125 -10.0725 19.88625 -10.625 19.3125 C-12.63135127 15.93818196 -12.67521613 12.89740648 -13 9 C-12.34 9 -11.68 9 -11 9 C-10.67 11.31 -10.34 13.62 -10 16 C-6.24848856 14.21092278 -6.24848856 14.21092278 -4.1875 10.8125 C-4.125625 10.214375 -4.06375 9.61625 -4 9 C-4.66 8.67 -5.32 8.34 -6 8 C-5.01 7.67 -4.02 7.34 -3 7 C-1.84164327 4.02496878 -1.84164327 4.02496878 -1 1 C-0.67 0.67 -0.34 0.34 0 0 Z " fill="#E4BF78" transform="translate(57,118)"/>
<path d="M0 0 C1.98 0 3.96 0 6 0 C6.33 1.32 6.66 2.64 7 4 C5 3 3 2 1 1 C1 1.66 1 2.32 1 3 C1.99 3.33 2.98 3.66 4 4 C2.94124926 7.40312738 1.99097846 10.01353231 0 13 C0.99 12.67 1.98 12.34 3 12 C3 12.99 3 13.98 3 15 C-2.75 18 -2.75 18 -5 18 C-5 17.34 -5 16.68 -5 16 C-5.66 16 -6.32 16 -7 16 C-7 16.66 -7 17.32 -7 18 C-6.525625 18.4125 -6.05125 18.825 -5.5625 19.25 C-4 21 -4 21 -3.6875 23.625 C-2.66779389 28.63083 0.36236858 33.36236858 4 37 C4.07179964 38.51928038 4.08392007 40.04167482 4.0625 41.5625 C4.05347656 42.38878906 4.04445313 43.21507812 4.03515625 44.06640625 C4.02355469 44.70449219 4.01195313 45.34257813 4 46 C3.67 44.68 3.34 43.36 3 42 C2.34 42 1.68 42 1 42 C0.16235732 40.04350603 -0.66999059 38.08474444 -1.5 36.125 C-1.9640625 35.03445312 -2.428125 33.94390625 -2.90625 32.8203125 C-4 30 -4 30 -4 28 C-4.66 28 -5.32 28 -6 28 C-6.33 26.02 -6.66 24.04 -7 22 C-8.32 21.67 -9.64 21.34 -11 21 C-11 22.98 -11 24.96 -11 27 C-11.99 26.01 -12.98 25.02 -14 24 C-13.34 22.68 -12.68 21.36 -12 20 C-11.01 20 -10.02 20 -9 20 C-9 19.34 -9 18.68 -9 18 C-9.66 18 -10.32 18 -11 18 C-10.67 16.68 -10.34 15.36 -10 14 C-8.68 14.33 -7.36 14.66 -6 15 C-5.67 14.01 -5.34 13.02 -5 12 C-5 12.66 -5 13.32 -5 14 C-4.34 14 -3.68 14 -3 14 C-3 13.01 -3 12.02 -3 11 C-2.01 10.34 -1.02 9.68 0 9 C1.20450304 6.44816596 1.20450304 6.44816596 2 4 C1.01 3.67 0.02 3.34 -1 3 C-0.67 2.01 -0.34 1.02 0 0 Z " fill="#EFD49A" transform="translate(41,80)"/>
<path d="M0 0 C1.32 0.33 2.64 0.66 4 1 C3.67 2.32 3.34 3.64 3 5 C4.32 5.66 5.64 6.32 7 7 C7 7.66 7 8.32 7 9 C7.66 9.33 8.32 9.66 9 10 C6.36 9.67 3.72 9.34 1 9 C1 8.34 1 7.68 1 7 C-0.94999129 7.19471111 -0.94999129 7.19471111 -3 8 C-4.87380446 10.49840595 -5.05001932 11.63319166 -4.625 14.75 C-4.41875 15.4925 -4.2125 16.235 -4 17 C-4.66 17 -5.32 17 -6 17 C-6 16.01 -6 15.02 -6 14 C-6.66 14 -7.32 14 -8 14 C-8.433125 15.2065625 -8.433125 15.2065625 -8.875 16.4375 C-10 19 -10 19 -12 20 C-11.835 19.38125 -11.67 18.7625 -11.5 18.125 C-10.92365356 16.03936614 -10.92365356 16.03936614 -11 14 C-11.99 13.67 -12.98 13.34 -14 13 C-13.34 12.67 -12.68 12.34 -12 12 C-12 11.01 -12 10.02 -12 9 C-12.66 9 -13.32 9 -14 9 C-14 8.34 -14 7.68 -14 7 C-11.36 6.67 -8.72 6.34 -6 6 C-6 5.34 -6 4.68 -6 4 C-4.35 4 -2.7 4 -1 4 C-0.67 2.68 -0.34 1.36 0 0 Z " fill="#F0D9A2" transform="translate(67,73)"/>
<path d="M0 0 C1.98 0.495 1.98 0.495 4 1 C4.33 2.98 4.66 4.96 5 7 C5.66 7 6.32 7 7 7 C8.125 13.625 8.125 13.625 7 17 C7.38932856 19.14255793 7.38932856 19.14255793 8 21 C6.1875 20.8125 6.1875 20.8125 4 20 C2.375 17.6875 2.375 17.6875 1 15 C0.63390625 14.40316406 0.2678125 13.80632812 -0.109375 13.19140625 C-1.2731858 10.32781914 -0.98830577 8.30176845 -0.625 5.25 C-0.51414062 4.26515625 -0.40328125 3.2803125 -0.2890625 2.265625 C-0.19367187 1.51796875 -0.09828125 0.7703125 0 0 Z " fill="#E3C17F" transform="translate(30,101)"/>
<path d="M0 0 C2.64 0.33 5.28 0.66 8 1 C7.85851011 2.6045556 7.71164314 4.20863767 7.5625 5.8125 C7.48128906 6.70582031 7.40007812 7.59914063 7.31640625 8.51953125 C7 11 7 11 6 14 C7.32 14.99 8.64 15.98 10 17 C9.01 18.32 8.02 19.64 7 21 C4 15.375 4 15.375 4 12 C3.38125 12.20625 2.7625 12.4125 2.125 12.625 C1.42375 12.74875 0.7225 12.8725 0 13 C-0.66 12.34 -1.32 11.68 -2 11 C-0.68 10.67 0.64 10.34 2 10 C2.185625 9.071875 2.185625 9.071875 2.375 8.125 C3 6 3 6 5 4 C2.69 4 0.38 4 -2 4 C-1.34 2.68 -0.68 1.36 0 0 Z " fill="#ECCD8F" transform="translate(67,109)"/>
<path d="M0 0 C0.66 0.33 1.32 0.66 2 1 C-0.475 4.465 -0.475 4.465 -3 8 C-2.34 8.33 -1.68 8.66 -1 9 C-3.57781906 11.57781906 -5.4401839 11.62129616 -9 12 C-9.33 11.67 -9.66 11.34 -10 11 C-10.33 12.32 -10.66 13.64 -11 15 C-11.99 15 -12.98 15 -14 15 C-13.625 12.0625 -13.625 12.0625 -13 9 C-12.34 8.67 -11.68 8.34 -11 8 C-10.505 7.01 -10.01 6.02 -9.5 5 C-8 2 -8 2 -6 1 C-6.165 1.639375 -6.33 2.27875 -6.5 2.9375 C-7.03926667 4.80826821 -7.03926667 4.80826821 -7 6 C-4.69 4.02 -2.38 2.04 0 0 Z " fill="#F0D7A3" transform="translate(26,86)"/>
<path d="M0 0 C0.99 0 1.98 0 3 0 C3.12375 1.5778125 3.12375 1.5778125 3.25 3.1875 C4.07673957 7.39009279 5.33334947 8.76769632 8 12 C8.87985265 14.31872769 9.4299193 16.57715704 10 19 C6.72713318 16.2180632 5.03572303 12.72045933 3 9 C3 9.66 3 10.32 3 11 C1.02 11 -0.96 11 -3 11 C-3 10.34 -3 9.68 -3 9 C-4.32 8.34 -5.64 7.68 -7 7 C-6 6 -6 6 -3.4375 5.9375 C-2.2309375 5.9684375 -2.2309375 5.9684375 -1 6 C-0.67 4.02 -0.34 2.04 0 0 Z " fill="#F5E3B8" transform="translate(49,96)"/>
<path d="M0 0 C0.66 0 1.32 0 2 0 C2.33 2.31 2.66 4.62 3 7 C4.98 6.01 6.96 5.02 9 4 C8.95117188 7.07617188 8.95117188 7.07617188 8.90234375 10.15234375 C8.79438816 12.01732141 8.79438816 12.01732141 10 13 C10.33 11.68 10.66 10.36 11 9 C11 10.98 11 12.96 11 15 C7 15 7 15 5.4375 13.75 C4.7259375 12.88375 4.7259375 12.88375 4 12 C3.46375 11.443125 2.9275 10.88625 2.375 10.3125 C0.36864873 6.93818196 0.32478387 3.89740648 0 0 Z " fill="#EBCF93" transform="translate(44,127)"/>
<path d="M0 0 C0 0.66 0 1.32 0 2 C-0.74894531 2.20367187 -1.49789063 2.40734375 -2.26953125 2.6171875 C-5.90180781 4.45670954 -6.80965227 6.55497937 -8.6875 10.125 C-9.74121406 12.11093559 -10.83340401 14.07820207 -12 16 C-12.66 16 -13.32 16 -14 16 C-14.66 17.32 -15.32 18.64 -16 20 C-16.66 20 -17.32 20 -18 20 C-16.04346643 12.36951909 -11.59212436 5.39474957 -5 1 C-3 0 -3 0 0 0 Z " fill="#E3C17D" transform="translate(28,66)"/>
<path d="M0 0 C6.66666667 1.66666667 6.66666667 1.66666667 9 4 C9.13568319 7.66344611 9.16461426 10.50615721 8 14 C4.625 13.75 4.625 13.75 1 13 C-0.4375 10.9375 -0.4375 10.9375 -1 9 C2.465 10.485 2.465 10.485 6 12 C6 10.02 6 8.04 6 6 C5.67 6.66 5.34 7.32 5 8 C4.34 8 3.68 8 3 8 C2.67 8.66 2.34 9.32 2 10 C1.34 6.7 0.68 3.4 0 0 Z " fill="#B49B67" transform="translate(43,104)"/>
<path d="M0 0 C4.38855677 1.72407587 6.91486937 4.82973873 9 9 C11.52733235 9.65555119 11.52733235 9.65555119 14 10 C14 9.34 14 8.68 14 8 C14.99 8.33 15.98 8.66 17 9 C17 9.99 17 10.98 17 12 C16.360625 12.165 15.72125 12.33 15.0625 12.5 C12.83880759 13.781786 12.83880759 13.781786 12.51171875 15.9140625 C12.2724022 17.93575155 12.13106972 19.96841939 12 22 C11.67 22 11.34 22 11 22 C10.25073929 18.33694766 9.7619986 15.57644848 11 12 C10.40574219 11.7525 9.81148437 11.505 9.19921875 11.25 C6.66461241 9.80937117 5.50030435 8.3603228 3.8125 6 C3.30332031 5.29875 2.79414062 4.5975 2.26953125 3.875 C1 2 1 2 0 0 Z " fill="#F1DEB0" transform="translate(70,94)"/>
<path d="M0 0 C3.34910895 3.34910895 4.57447712 4.68087301 6.25 8.75 C6.58515625 9.54921875 6.9203125 10.3484375 7.265625 11.171875 C7.62914062 12.07679687 7.62914062 12.07679687 8 13 C5.36 13.33 2.72 13.66 0 14 C0 9.38 0 4.76 0 0 Z " fill="#E9C886" transform="translate(51,104)"/>
<path d="M0 0 C2.48857345 2.3097538 4.2809597 4.78017401 6.125 7.625 C7.88026555 10.45772322 7.88026555 10.45772322 10 13 C10.07179964 14.51928038 10.08392007 16.04167482 10.0625 17.5625 C10.05347656 18.38878906 10.04445313 19.21507813 10.03515625 20.06640625 C10.02355469 20.70449219 10.01195312 21.34257813 10 22 C9.67 20.68 9.34 19.36 9 18 C8.34 18 7.68 18 7 18 C6.16235732 16.04350603 5.33000941 14.08474444 4.5 12.125 C4.0359375 11.03445312 3.571875 9.94390625 3.09375 8.8203125 C2 6 2 6 2 4 C1.34 4 0.68 4 0 4 C0 2.68 0 1.36 0 0 Z " fill="#F3E1B4" transform="translate(35,104)"/>
<path d="M0 0 C2.48046875 1.08203125 2.48046875 1.08203125 5 3 C5.48828125 6.13671875 5.48828125 6.13671875 5.3125 9.6875 C5.26738281 10.86699219 5.22226563 12.04648438 5.17578125 13.26171875 C5.11777344 14.16535156 5.05976562 15.06898437 5 16 C4.01 16 3.02 16 2 16 C1.67 16.66 1.34 17.32 1 18 C1 17.01 1 16.02 1 15 C1.66 15 2.32 15 3 15 C2.42655063 12.13275314 2.1385485 11.1385485 0 9 C0.99 9 1.98 9 3 9 C3 8.34 3 7.68 3 7 C2.01 7 1.02 7 0 7 C0 4.69 0 2.38 0 0 Z " fill="#E2BD74" transform="translate(76,103)"/>
<path d="M0 0 C1.65 0.33 3.3 0.66 5 1 C4.649375 1.556875 4.29875 2.11375 3.9375 2.6875 C2.78154007 5.53886783 3.19032562 7.08517222 4 10 C3.34 10 2.68 10 2 10 C2 9.01 2 8.02 2 7 C1.34 7 0.68 7 0 7 C-0.28875 7.804375 -0.5775 8.60875 -0.875 9.4375 C-2 12 -2 12 -4 13 C-3.29666462 10.02277453 -2.41751463 7.14743457 -1.4375 4.25 C-1.16808594 3.45078125 -0.89867187 2.6515625 -0.62109375 1.828125 C-0.41613281 1.22484375 -0.21117187 0.6215625 0 0 Z " fill="#EFD398" transform="translate(59,80)"/>
<path d="M0 0 C0.66 0 1.32 0 2 0 C3.125 6.625 3.125 6.625 2 10 C2.38932856 12.14255793 2.38932856 12.14255793 3 14 C1.68 13.67 0.36 13.34 -1 13 C-2.0070238 7.96488101 -1.97387813 4.76052962 0 0 Z " fill="#EACC8E" transform="translate(35,108)"/>
<path d="M0 0 C1.25 1.875 1.25 1.875 2 4 C1.67 4.99 1.34 5.98 1 7 C0.01 6.34 -0.98 5.68 -2 5 C-1.505 5.45375 -1.01 5.9075 -0.5 6.375 C1 8 1 8 1 10 C0.01 10 -0.98 10 -2 10 C-4.22948981 7.04920467 -5.82859875 4.51420376 -7 1 C-3.375 -1.125 -3.375 -1.125 0 0 Z " fill="#E6C27B" transform="translate(80,93)"/>
<path d="M0 0 C0 0.66 0 1.32 0 2 C0.99 2 1.98 2 3 2 C3 2.66 3 3.32 3 4 C-1.29 4.66 -5.58 5.32 -10 6 C-10 5.34 -10 4.68 -10 4 C-8.71086513 3.32845067 -7.41859796 2.66291141 -6.125 2 C-5.40570312 1.62875 -4.68640625 1.2575 -3.9453125 0.875 C-2 0 -2 0 0 0 Z " fill="#F6E6BD" transform="translate(36,77)"/>
<path d="M0 0 C0.66 0 1.32 0 2 0 C2.33 1.32 2.66 2.64 3 4 C3.66 4 4.32 4 5 4 C4.67 6.31 4.34 8.62 4 11 C0.24495289 9.54643338 0.24495289 9.54643338 -0.8125 7.1875 C-1.03322704 4.61235122 -0.62444329 2.49777315 0 0 Z " fill="#E6C786" transform="translate(55,137)"/>
<path d="M0 0 C0.45375 0.495 0.9075 0.99 1.375 1.5 C2.87635519 3.22609337 2.87635519 3.22609337 5 3 C5.33 2.01 5.66 1.02 6 0 C7 1 7 1 7.0625 4.5625 C7.041875 5.696875 7.02125 6.83125 7 8 C4.125 7.3125 4.125 7.3125 1 6 C-0.375 3.375 -0.375 3.375 -1 1 C-0.67 0.67 -0.34 0.34 0 0 Z " fill="#E4CD94" transform="translate(43,109)"/>
<path d="M0 0 C1.98 0 3.96 0 6 0 C6.33 1.32 6.66 2.64 7 4 C5 3 3 2 1 1 C1 1.66 1 2.32 1 3 C1.99 3.33 2.98 3.66 4 4 C3.39816251 6.02045442 2.72693904 8.02111039 2 10 C1.01 10.495 1.01 10.495 0 11 C0.66 8.69 1.32 6.38 2 4 C1.01 3.67 0.02 3.34 -1 3 C-0.67 2.01 -0.34 1.02 0 0 Z " fill="#F4E0B2" transform="translate(41,80)"/>
<path d="M0 0 C2.4375 0.625 2.4375 0.625 5 2 C5.9375 5 5.9375 5 6 8 C5.34 8.66 4.68 9.32 4 10 C4 9.01 4 8.02 4 7 C3.34 7 2.68 7 2 7 C1.67 7.66 1.34 8.32 1 9 C0.67 6.03 0.34 3.06 0 0 Z " fill="#EDD298" transform="translate(56,134)"/>
<path d="M0 0 C0.99 0.33 1.98 0.66 3 1 C3.33 2.32 3.66 3.64 4 5 C-1.94 5.495 -1.94 5.495 -8 6 C-3.5 2.625 -3.5 2.625 0 2 C0 1.34 0 0.68 0 0 Z " fill="#E3BF78" transform="translate(38,72)"/>
<path d="M0 0 C0.66 0.33 1.32 0.66 2 1 C2.4140625 3.28515625 2.4140625 3.28515625 2.625 6.0625 C2.69976562 6.98160156 2.77453125 7.90070313 2.8515625 8.84765625 C2.92503906 9.91306641 2.92503906 9.91306641 3 11 C1.02 11.99 1.02 11.99 -1 13 C-0.67 8.71 -0.34 4.42 0 0 Z " fill="#EACE91" transform="translate(9,100)"/>
<path d="M0 0 C1.2065625 0.2475 1.2065625 0.2475 2.4375 0.5 C4.7284443 1.03191839 4.7284443 1.03191839 6 1 C6.33 2.32 6.66 3.64 7 5 C5.35 5.33 3.7 5.66 2 6 C0 1.125 0 1.125 0 0 Z " fill="#EACA89" transform="translate(20,99)"/>
<path d="M0 0 C3.2542015 2.83430453 4.5206753 4.68607774 5 9 C4.01 8.67 3.02 8.34 2 8 C1.67 8.66 1.34 9.32 1 10 C0.67 6.7 0.34 3.4 0 0 Z " fill="#E4C17C" transform="translate(51,104)"/>
<path d="M0 0 C1.32 0.33 2.64 0.66 4 1 C4.33 3.64 4.66 6.28 5 9 C4.01 9 3.02 9 2 9 C1.34 6.03 0.68 3.06 0 0 Z " fill="#E4BF77" transform="translate(30,101)"/>
<path d="M0 0 C1.65 0 3.3 0 5 0 C4.814375 0.61875 4.62875 1.2375 4.4375 1.875 C3.76313824 4.04160178 3.76313824 4.04160178 5 6 C1.73045798 5.43628586 0.17424117 4.50037734 -2 2 C-1.34 2 -0.68 2 0 2 C0 1.34 0 0.68 0 0 Z " fill="#EDCE8D" transform="translate(75,83)"/>
<path d="M0 0 C0.99 0.33 1.98 0.66 3 1 C3 1.99 3 2.98 3 4 C3.66 4 4.32 4 5 4 C5.33 2.68 5.66 1.36 6 0 C6 1.98 6 3.96 6 6 C2 6 2 6 0 5 C0 3.35 0 1.7 0 0 Z " fill="#F3E0AF" transform="translate(49,136)"/>
<path d="M0 0 C2.12508244 3.18762365 2.5020163 5.26512223 3 9 C1.68 9 0.36 9 -1 9 C-1.80967438 6.08517222 -2.21845993 4.53886783 -1.0625 1.6875 C-0.711875 1.130625 -0.36125 0.57375 0 0 Z " fill="#E5C37E" transform="translate(38,112)"/>
<path d="M0 0 C2 1 2 1 3 3 C3.66 2.67 4.32 2.34 5 2 C5 4 5 6 5 8 C2.53199953 6.84826645 0.95216435 5.95216435 -1 4 C-0.625 1.875 -0.625 1.875 0 0 Z " fill="#EED090" transform="translate(46,88)"/>
<path d="M0 0 C2.3431213 0.25561323 4.67843403 0.59270772 7 1 C7.33 1.66 7.66 2.32 8 3 C5.69 3.33 3.38 3.66 1 4 C0.67 2.68 0.34 1.36 0 0 Z " fill="#EDD090" transform="translate(28,66)"/>
<path d="M0 0 C2.31 0 4.62 0 7 0 C5.68 2.31 4.36 4.62 3 7 C2.34 7 1.68 7 1 7 C1.20625 6.21625 1.4125 5.4325 1.625 4.625 C1.74875 3.75875 1.8725 2.8925 2 2 C1.34 1.34 0.68 0.68 0 0 Z " fill="#E6C27B" transform="translate(66,112)"/>
<path d="M0 0 C1.32 0.66 2.64 1.32 4 2 C2.71034824 3.37562854 1.37310707 4.70766393 0 6 C-0.66 6 -1.32 6 -2 6 C-2.33 6.99 -2.66 7.98 -3 9 C-3.33 8.34 -3.66 7.68 -4 7 C-3.22265625 5.2734375 -3.22265625 5.2734375 -2.0625 3.375 C-1.381875 2.26125 -0.70125 1.1475 0 0 Z " fill="#E6C17A" transform="translate(21,86)"/>
<path d="M0 0 C2 2 4 4 6 6 C5.01 7.32 4.02 8.64 3 10 C0.96564469 6.27034861 0 4.33094958 0 0 Z " fill="#F2DFB2" transform="translate(71,120)"/>
<path d="M0 0 C2.64 0 5.28 0 8 0 C7.67 0.99 7.34 1.98 7 3 C4.9375 3.6875 4.9375 3.6875 3 4 C3 3.34 3 2.68 3 2 C2.01 2 1.02 2 0 2 C0 1.34 0 0.68 0 0 Z " fill="#EBCA89" transform="translate(36,77)"/>
<path d="M0 0 C0.99 0 1.98 0 3 0 C3.21278058 4.46839215 2.59138085 7.82262526 1 12 C0.67 12 0.34 12 0 12 C0 8.04 0 4.08 0 0 Z " fill="#4D4E34" transform="translate(192,72)"/>
<path d="M0 0 C1.15224028 0.92961422 2.29659176 1.8690125 3.4375 2.8125 C4.07558594 3.33457031 4.71367188 3.85664062 5.37109375 4.39453125 C7 6 7 6 8 9 C7.01 9 6.02 9 5 9 C2.77051019 6.04920467 1.17140125 3.51420376 0 0 Z " fill="#E3BC71" transform="translate(73,94)"/>
<path d="M0 0 C1.88343932 3.76687864 2.22057835 5.02958963 2 9 C1.01 9.33 0.02 9.66 -1 10 C-0.67 6.7 -0.34 3.4 0 0 Z " fill="#EACB8B" transform="translate(30,102)"/>
<path d="M0 0 C2 2 2 2 2.1953125 3.9453125 C2.13020833 5.96354167 2.06510417 7.98177083 2 10 C1.34 9.67 0.68 9.34 0 9 C-0.44921875 7.1875 -0.44921875 7.1875 -0.6875 5 C-0.77386719 4.278125 -0.86023438 3.55625 -0.94921875 2.8125 C-0.96597656 2.214375 -0.98273438 1.61625 -1 1 C-0.67 0.67 -0.34 0.34 0 0 Z " fill="#E4C381" transform="translate(85,93)"/>
<path d="M0 0 C0.66 0.33 1.32 0.66 2 1 C1.21654285 2.17219543 0.42297164 3.33763668 -0.375 4.5 C-0.81585937 5.1496875 -1.25671875 5.799375 -1.7109375 6.46875 C-2.13632812 6.9740625 -2.56171875 7.479375 -3 8 C-3.66 8 -4.32 8 -5 8 C-4.45773019 4.20411134 -2.79872437 2.52788007 0 0 Z " fill="#F7EAC7" transform="translate(26,86)"/>
<path d="M0 0 C2.64 0 5.28 0 8 0 C7.67 1.32 7.34 2.64 7 4 C6.34 4 5.68 4 5 4 C5 3.34 5 2.68 5 2 C3.35 2 1.7 2 0 2 C0 1.34 0 0.68 0 0 Z " fill="#EBCC89" transform="translate(59,73)"/>
<path d="M0 0 C0.99 0.33 1.98 0.66 3 1 C2.67 1.99 2.34 2.98 2 4 C-0.0625 4.6875 -0.0625 4.6875 -2 5 C-2.33 4.34 -2.66 3.68 -3 3 C-2.01 2.01 -1.02 1.02 0 0 Z " fill="#E3BE77" transform="translate(49,119)"/>
<path d="M0 0 C2.475 0.495 2.475 0.495 5 1 C5.33 3.64 5.66 6.28 6 9 C2.98101014 7.49050507 2.40039451 4.98344918 1 2 C0.67 1.34 0.34 0.68 0 0 Z " fill="#E5BF75" transform="translate(53,103)"/>
<path d="M0 0 C0.66 0 1.32 0 2 0 C2 0.66 2 1.32 2 2 C3.32 2.33 4.64 2.66 6 3 C5.34 3.66 4.68 4.32 4 5 C1.875 4.625 1.875 4.625 0 4 C0 2.68 0 1.36 0 0 Z " fill="#EDD093" transform="translate(19,92)"/>
<path d="M0 0 C0.33 0 0.66 0 1 0 C1.125 5.75 1.125 5.75 0 8 C-0.66 8 -1.32 8 -2 8 C-2.33 6.68 -2.66 5.36 -3 4 C-2.01 3.67 -1.02 3.34 0 3 C0 2.01 0 1.02 0 0 Z " fill="#DCC38D" transform="translate(38,66)"/>
</svg>
