<?xml version="1.0" encoding="UTF-8"?>
<svg version="1.1" xmlns="http://www.w3.org/2000/svg" width="512" height="512">
<path d="M0 0 C168.96 0 337.92 0 512 0 C512 168.96 512 337.92 512 512 C343.04 512 174.08 512 0 512 C0 343.04 0 174.08 0 0 Z " fill="#FEFEFE" transform="translate(0,0)"/>
<path d="M0 0 C0.67482422 0.13889648 1.34964844 0.27779297 2.04492188 0.42089844 C4.12120749 0.87664413 6.18531027 1.36944046 8.25 1.875 C8.92417969 2.03613281 9.59835938 2.19726562 10.29296875 2.36328125 C13.4476898 3.12111927 16.59530263 3.89224955 19.73071289 4.72705078 C27.41233807 6.74313511 35.07315837 8.04769293 42.9375 9.125 C44.69610352 9.37830078 44.69610352 9.37830078 46.49023438 9.63671875 C61.94239107 11.80394559 77.17222912 12.20673615 92.75 12.1875 C94.32800888 12.18559662 94.32800888 12.18559662 95.93789673 12.18365479 C117.8848181 12.1331277 138.95947857 10.65755102 160.625 7.125 C161.7604274 6.94067413 161.7604274 6.94067413 162.91879272 6.75262451 C172.03465128 5.25239391 180.87731572 3.37418035 189.74365234 0.76513672 C193.00655384 -0.00153994 195.66478082 -0.29692305 199 0 C201.22323983 1.61258996 202.96544558 3.07885163 204.875 5 C205.39819824 5.50619873 205.92139648 6.01239746 206.46044922 6.53393555 C207.50771149 7.55073728 208.54904932 8.5736812 209.58398438 9.60302734 C210.76499243 10.76815288 211.98018261 11.89850072 213.203125 13.01953125 C238.28210305 36.41638273 251.41508054 76.45854154 253 110 C254.18212147 144.14329076 249.38531264 174.61698894 225.35839844 200.56738281 C202.46291954 224.71380089 169.31746992 236.30154692 137.01708984 240.58984375 C134.90917101 240.87640336 132.80535041 241.19406195 130.70556641 241.53515625 C120.55000039 243.0990441 110.57950493 243.30712131 100.32080078 243.26074219 C97.50401289 243.25001528 94.68786251 243.26070302 91.87109375 243.2734375 C81.37592039 243.28103736 71.36581442 242.62143293 61 241 C58.66759335 240.74149727 56.33432436 240.49057062 54 240.25 C25.99705288 236.44206786 -1.65811075 225.74825688 -23 207 C-24.03125 206.21625 -25.0625 205.4325 -26.125 204.625 C-44.73522935 187.63305146 -56.76486616 161.2110224 -58.22290039 136.17211914 C-58.36614256 131.90643446 -58.38595587 127.64274466 -58.375 123.375 C-58.37478851 122.61220734 -58.37457703 121.84941467 -58.37435913 121.06350708 C-58.3179146 100.52919908 -55.47940003 80.5272157 -49 61 C-48.77586426 60.32324219 -48.55172852 59.64648438 -48.32080078 58.94921875 C-40.83052544 36.83255536 -29.46870965 17.7160924 -12 2 C-11.401875 1.38769531 -10.80375 0.77539062 -10.1875 0.14453125 C-6.76650881 -1.64538021 -3.62281929 -0.74722701 0 0 Z " fill="#010101" transform="translate(161,214)"/>
<path d="M0 0 C0.67482422 0.13889648 1.34964844 0.27779297 2.04492188 0.42089844 C4.12120749 0.87664413 6.18531027 1.36944046 8.25 1.875 C8.92417969 2.03613281 9.59835938 2.19726562 10.29296875 2.36328125 C13.4476898 3.12111927 16.59530263 3.89224955 19.73071289 4.72705078 C27.41233807 6.74313511 35.07315837 8.04769293 42.9375 9.125 C44.69610352 9.37830078 44.69610352 9.37830078 46.49023438 9.63671875 C61.94239107 11.80394559 77.17222912 12.20673615 92.75 12.1875 C94.32800888 12.18559662 94.32800888 12.18559662 95.93789673 12.18365479 C117.8848181 12.1331277 138.95947857 10.65755102 160.625 7.125 C161.7604274 6.94067413 161.7604274 6.94067413 162.91879272 6.75262451 C172.03465128 5.25239391 180.87731572 3.37418035 189.74365234 0.76513672 C193.00655384 -0.00153994 195.66478082 -0.29692305 199 0 C201.22323983 1.61258996 202.96544558 3.07885163 204.875 5 C205.39819824 5.50619873 205.92139648 6.01239746 206.46044922 6.53393555 C207.50771149 7.55073728 208.54904932 8.5736812 209.58398438 9.60302734 C210.76499243 10.76815288 211.98018261 11.89850072 213.203125 13.01953125 C238.28210305 36.41638273 251.41508054 76.45854154 253 110 C254.18212147 144.14329076 249.38531264 174.61698894 225.35839844 200.56738281 C202.46291954 224.71380089 169.31746992 236.30154692 137.01708984 240.58984375 C134.90917101 240.87640336 132.80535041 241.19406195 130.70556641 241.53515625 C120.55000039 243.0990441 110.57950493 243.30712131 100.32080078 243.26074219 C97.50401289 243.25001528 94.68786251 243.26070302 91.87109375 243.2734375 C81.37592039 243.28103736 71.36581442 242.62143293 61 241 C58.66759335 240.74149727 56.33432436 240.49057062 54 240.25 C25.99705288 236.44206786 -1.65811075 225.74825688 -23 207 C-24.03125 206.21625 -25.0625 205.4325 -26.125 204.625 C-44.73522935 187.63305146 -56.76486616 161.2110224 -58.22290039 136.17211914 C-58.36614256 131.90643446 -58.38595587 127.64274466 -58.375 123.375 C-58.37478851 122.61220734 -58.37457703 121.84941467 -58.37435913 121.06350708 C-58.3179146 100.52919908 -55.47940003 80.5272157 -49 61 C-48.77586426 60.32324219 -48.55172852 59.64648438 -48.32080078 58.94921875 C-40.83052544 36.83255536 -29.46870965 17.7160924 -12 2 C-11.401875 1.38769531 -10.80375 0.77539062 -10.1875 0.14453125 C-6.76650881 -1.64538021 -3.62281929 -0.74722701 0 0 Z M36.17553711 34.88378906 C35.36949067 34.9601849 34.56344423 35.03658073 33.73297215 35.1152916 C16.04400605 37.00940975 1.4668127 45.55464481 -11 58 C-11.69738281 58.68578125 -12.39476562 59.3715625 -13.11328125 60.078125 C-31.6829082 79.54919016 -34.66371813 103.92862661 -34.12744141 129.59423828 C-33.28864276 152.01040904 -21.69885814 170.97171533 -5.765625 186.125 C-0.97056584 190.24424545 4.15321216 193.36972652 9.75 196.25 C10.35658447 196.56727051 10.96316895 196.88454102 11.58813477 197.21142578 C22.07504569 202.35024166 33.55442198 204.62181462 45.09765625 205.73046875 C46.94388329 205.91321602 46.94388329 205.91321602 48.82740784 206.09965515 C64.22567746 207.47608727 79.63845749 207.41224994 95.08538818 207.3225708 C98.23530512 207.30908412 101.38508217 207.31442014 104.53501511 207.31944084 C141.28031852 207.36354138 178.17696385 207.34497711 206 180 C206.62648438 179.38640625 207.25296875 178.7728125 207.8984375 178.140625 C224.17163954 160.91017578 229.6646754 137.25569887 229.1875 114.2578125 C228.99129578 108.70768554 228.26328445 103.4088903 227 98 C226.63261719 96.35837891 226.63261719 96.35837891 226.2578125 94.68359375 C222.8374997 81.13854969 216.35171773 69.36221768 207 59 C206.37480469 58.29359375 205.74960937 57.5871875 205.10546875 56.859375 C192.00149573 42.87468689 173.49374346 36.10351369 154.71484375 34.828125 C153.58296127 34.74854553 152.4510788 34.66896606 151.28489685 34.5869751 C133.80164844 33.517931 116.26332862 33.70027392 98.75512695 33.73925781 C93.57989019 33.75070316 88.40485989 33.74403067 83.22963047 33.73211288 C79.16872155 33.72481155 75.1078599 33.72721882 71.04694939 33.73236847 C69.14042065 33.73367945 67.23388726 33.73214966 65.32736397 33.72740936 C55.56391474 33.70842603 45.89877543 33.94541603 36.17553711 34.88378906 Z " fill="#020202" transform="translate(161,214)"/>
<path d="M0 0 C2.20815713 0.7879655 4.40370695 1.60498354 6.59805298 2.43063354 C7.43011765 2.74042648 8.26218231 3.05021942 9.11946106 3.36940002 C11.87031862 4.39500204 14.61898823 5.4263311 17.36758423 6.45797729 C19.31429957 7.18568223 21.26107796 7.91321854 23.20791626 8.64059448 C37.71964145 14.06934191 52.20279286 19.57240696 66.67642212 25.10177612 C80.05623677 30.21247387 93.44976572 35.28618407 106.85043335 40.34194946 C110.2693554 41.6319959 113.68787018 42.92311716 117.10635376 44.21432495 C126.93587855 47.92491373 136.76903986 51.62387938 146.62539673 55.26266479 C148.15390896 55.82866679 149.68239329 56.39474413 151.21084595 56.96090698 C153.94139316 57.97216327 156.67505974 58.97422696 159.41104126 59.97067261 C160.57748169 60.40218628 161.74392212 60.83369995 162.94570923 61.27828979 C163.94376587 61.64325562 164.94182251 62.00822144 165.97012329 62.38424683 C168.18008423 63.39547729 168.18008423 63.39547729 169.18008423 65.39547729 C168.22376099 65.63274536 167.26743774 65.87001343 166.28213501 66.11447144 C159.09097678 67.90302866 151.90657693 69.71431839 144.73477173 71.57907104 C131.04648152 75.1354251 117.37326192 78.67630194 103.56045532 81.72335815 C97.11070191 83.1542226 90.73755795 84.80084739 84.35977173 86.52145386 C77.40467936 88.37944049 70.397683 89.95692959 63.37149048 91.52047729 C56.65760669 93.02709918 50.01481257 94.72557759 43.37246704 96.51828003 C36.33076465 98.39955527 29.23663197 100.00466797 22.1210022 101.57980347 C15.49554926 103.05795227 8.9771988 104.76822907 2.46914673 106.69625854 C-5.50536056 108.39155166 -12.27275428 106.80863275 -20.0171814 104.80026245 C-21.1147728 104.52371826 -22.2123642 104.24717407 -23.34321594 103.96224976 C-26.9731996 103.04529553 -30.59960768 102.11494133 -34.22616577 101.18453979 C-36.78670123 100.53504101 -39.34745581 99.88640553 -41.90841675 99.23858643 C-47.98585752 97.69975534 -54.06082271 96.15137804 -60.1349225 94.59941804 C-67.55267088 92.70458792 -74.97332538 90.8212468 -82.39413452 88.93844604 C-90.23709511 86.94839727 -98.07965625 84.95685838 -105.92001343 82.95657349 C-117.45353601 80.01551554 -128.99002935 77.0917623 -140.55038452 74.25778198 C-141.99321178 73.90283818 -141.99321178 73.90283818 -143.46518707 73.5407238 C-147.85467072 72.46101249 -152.24561304 71.38853317 -156.64059448 70.3314209 C-158.13860644 69.96429381 -159.63653715 69.59683501 -161.1343689 69.22897339 C-162.41348145 68.91995087 -163.69259399 68.61092834 -165.01046753 68.2925415 C-166.40114441 67.84849472 -166.40114441 67.84849472 -167.81991577 67.39547729 C-168.14991577 66.73547729 -168.47991577 66.07547729 -168.81991577 65.39547729 C-150.10095881 57.45453123 -131.36601398 49.56237449 -112.50741577 41.95797729 C-98.71386273 36.39544852 -84.96063265 30.74267093 -71.22817993 25.03100586 C-55.03062828 18.29526472 -38.79948879 11.64338976 -22.55599976 5.01925659 C-21.6501413 4.64955246 -20.74428284 4.27984833 -19.81097412 3.89894104 C-18.11035915 3.20495622 -16.40946582 2.511653 -14.70825195 1.81913757 C-5.6511126 -1.87713406 -5.6511126 -1.87713406 0 0 Z " fill="#010101" transform="translate(261.8199157714844,56.604522705078125)"/>
<path d="M0 0 C5.56026462 0.61780718 10.23136081 1.15189091 15.51586914 2.48706055 C16.71905289 2.7879509 17.92223663 3.08884125 19.16188049 3.39884949 C20.44006149 3.72484634 21.71824249 4.0508432 23.03515625 4.38671875 C24.3995624 4.73016215 25.76410304 5.07307166 27.12876892 5.41548157 C30.71618526 6.31708332 34.30178599 7.22570535 37.88702393 8.13592529 C40.74530152 8.86061891 43.60461469 9.58116573 46.46407509 10.30117607 C48.57412068 10.83248429 50.68396016 11.36460561 52.79379272 11.89675903 C55.57175117 12.59710294 58.35048174 13.29426563 61.12979126 13.98922729 C67.43509778 15.56945802 73.72503787 17.18459236 79.98779297 18.92822266 C81.06290634 19.21961624 82.13801971 19.51100983 83.24571228 19.81123352 C85.19883811 20.34260744 87.1471642 20.89218933 89.08839417 21.46549988 C96.17764768 23.36533435 101.90448924 22.6520069 109 21 C110.1080323 20.75101204 110.1080323 20.75101204 111.2384491 20.49699402 C113.18552077 20.03573021 115.12046474 19.52419774 117.0546875 19.01171875 C117.75514191 18.82827408 118.45559631 18.64482941 119.17727661 18.45582581 C120.65422672 18.06883426 122.13061434 17.67968995 123.60644531 17.28845215 C127.48177754 16.26185612 131.36171463 15.25305833 135.2421875 14.24609375 C136.00408386 14.04827301 136.76598022 13.85045227 137.55096436 13.64663696 C144.53369398 11.84348373 151.55145043 10.22870602 158.59448242 8.67919922 C165.2488559 7.2047495 171.83294796 5.5212437 178.40039062 3.69824219 C184.2744504 2.09452213 189.93287823 1.10311305 196 0 C196 19.47 196 38.94 196 59 C188.80778496 61.69708064 182.15623821 63.46370734 174.6875 65 C173.41946533 65.26127686 172.15143066 65.52255371 170.8449707 65.79174805 C145.89111602 70.80605541 120.52388081 72.23101102 95.125 72.25 C94.18178894 72.25100708 93.23857788 72.25201416 92.26678467 72.25305176 C76.98486291 72.24206478 62.10023959 71.53796705 47 69 C46.07155273 68.8448291 45.14310547 68.6896582 44.18652344 68.52978516 C38.09553425 67.48332975 32.04580754 66.27949788 26 65 C25.16903809 64.82823242 24.33807617 64.65646484 23.48193359 64.47949219 C21.04832318 63.97500375 18.61746261 63.45925404 16.1875 62.9375 C15.47658203 62.78740479 14.76566406 62.63730957 14.03320312 62.48266602 C9.06182009 61.37995082 4.86833881 59.82562705 0 58 C0 38.86 0 19.72 0 0 Z " fill="#010101" transform="translate(158,148)"/>
<path d="M0 0 C1.96939644 -0.00135421 3.93879255 -0.00330095 5.90818787 -0.00579834 C10.00661447 -0.008719 14.10495293 -0.00455523 18.20336914 0.00488281 C23.37117791 0.01622394 28.53877959 0.00953917 33.70658112 -0.00198841 C113.24747218 -0.15313616 113.24747218 -0.15313616 136.15625 22.45703125 C149.88075923 36.65548037 160.43726151 56.061438 160.87109375 76.265625 C160.89010742 76.89017578 160.90912109 77.51472656 160.92871094 78.15820312 C161.63338239 103.64189545 155.96081352 125.76247152 138.87109375 145.265625 C138.278125 145.95398438 137.68515625 146.64234375 137.07421875 147.3515625 C118.40509435 167.53655598 90.96163314 171.73088739 64.87109375 173.265625 C59.537698 173.41970697 54.20624356 173.45478824 48.87109375 173.46875 C47.75175446 173.47299107 47.75175446 173.47299107 46.60980225 173.47731781 C42.64709133 173.49220394 38.68441572 173.50149549 34.72167969 173.50585938 C31.51648347 173.51020792 28.31156192 173.52397307 25.10644531 173.546875 C-49.33979336 174.06763326 -49.33979336 174.06763326 -76.12890625 150.265625 C-76.76441406 149.70101562 -77.39992187 149.13640625 -78.0546875 148.5546875 C-91.97509916 135.40591729 -101.38222679 115.35941918 -102.26953125 96.23461914 C-103.06809915 67.86749099 -103.06809915 67.86749099 -98.12890625 55.265625 C-97.49275391 53.51185547 -97.49275391 53.51185547 -96.84375 51.72265625 C-89.03916399 31.78726523 -74.51558009 16.12408439 -55.26171875 6.890625 C-52.89785632 5.91346606 -50.56672957 5.03820283 -48.12890625 4.265625 C-47.11287827 3.9429364 -46.09685028 3.6202478 -45.05003357 3.28778076 C-40.74910835 2.07001531 -36.45281862 1.57977647 -32.01196289 1.15722656 C-30.70536382 1.03089529 -30.70536382 1.03089529 -29.37236881 0.90201187 C-19.58336039 0.02783082 -9.82084721 -0.02441814 0 0 Z M-27.35546875 8.02734375 C-28.39037445 8.08831741 -29.42528015 8.14929108 -30.49154663 8.21211243 C-49.83781552 9.73226069 -65.90386716 19.49982659 -78.41015625 33.890625 C-92.91118933 52.6304216 -97.43909106 75.44029778 -94.86083984 98.68212891 C-91.96787688 118.13904391 -82.00766785 137.33826029 -66.12890625 149.265625 C-54.42439881 157.37103358 -43.4235326 161.46655997 -29.31640625 163.453125 C-28.24326172 163.61748047 -27.17011719 163.78183594 -26.06445312 163.95117188 C-13.14336074 165.85882867 -0.24429426 166.42953184 12.8046875 166.50390625 C13.83616252 166.51001954 13.83616252 166.51001954 14.88847542 166.51625633 C18.54226477 166.53693362 22.19601884 166.55130209 25.84985352 166.56079102 C28.79212787 166.56955209 31.73391464 166.5902148 34.67602539 166.62231445 C50.53323813 166.79119209 66.1276303 166.4915103 81.87109375 164.44140625 C83.7558567 164.19684441 83.7558567 164.19684441 85.67869568 163.94734192 C107.34024299 160.85890372 125.48668718 151.97959613 138.87109375 134.265625 C144.73656685 125.48293247 148.82322951 116.40871974 151.87109375 106.265625 C152.24041016 105.07839844 152.24041016 105.07839844 152.6171875 103.8671875 C157.7469695 83.70183755 152.83952102 61.26501751 143.27734375 43.265625 C134.38377874 28.49895102 122.69218264 18.75445869 106.87109375 12.265625 C106.11957031 11.91242188 105.36804688 11.55921875 104.59375 11.1953125 C100.8115491 9.90382926 97.08679405 9.5763292 93.12109375 9.203125 C92.37988281 9.12513672 91.63867188 9.04714844 90.875 8.96679688 C76.6343344 7.54273031 62.39916007 7.10438309 48.09765625 7.09765625 C46.43785578 7.09442518 44.77805556 7.0910599 43.11825562 7.08757019 C39.66102441 7.08163835 36.20381796 7.07972392 32.74658203 7.08032227 C29.26410693 7.08040318 25.78176434 7.07350551 22.29931641 7.05981445 C5.73598331 6.99597139 -10.82038279 6.93526627 -27.35546875 8.02734375 Z " fill="#F6F6F6" transform="translate(229.12890625,247.734375)"/>
<path d="M0 0 C1.25470093 -0.00630432 2.50940186 -0.01260864 3.80212402 -0.019104 C5.1773289 -0.01552432 6.55253249 -0.01142239 7.92773438 -0.00683594 C9.33256091 -0.00818267 10.73738698 -0.01012326 12.14221191 -0.01263428 C15.08785434 -0.0155852 18.03337556 -0.01128902 20.97900391 -0.00195312 C24.7588694 0.00944151 28.5384509 0.00288185 32.31830597 -0.00909805 C35.219606 -0.01631759 38.12083846 -0.01402832 41.0221405 -0.00884247 C42.41603122 -0.00750622 43.80992804 -0.00915282 45.20381165 -0.01380157 C47.15019619 -0.01886804 49.09660218 -0.00977964 51.04296875 0 C52.15168335 0.00159119 53.26039795 0.00318237 54.40270996 0.00482178 C57.02148438 0.25878906 57.02148438 0.25878906 59.02148438 2.25878906 C60.00641343 11.45146025 56.43380742 19.34500483 50.71289062 26.44238281 C43.3021301 34.40082079 35.45002679 37.32807793 24.70898438 37.82128906 C15.00705155 37.59769742 7.76872592 34.04107723 0.58398438 27.63378906 C-4.82612324 21.72671958 -8.19575156 14.17990563 -8.41601562 6.13378906 C-7.71412569 -0.08295034 -5.68172256 0.0081542 0 0 Z " fill="#F6F6F6" transform="translate(232.978515625,354.7412109375)"/>
<path d="M0 0 C5.92930245 2.73747489 9.28192392 6.97552751 12.3515625 12.69140625 C14.60359255 19.5660243 14.05731948 24.72747375 10.94140625 31.13671875 C7.96914969 35.75654929 3.81864191 38.93666082 -0.8359375 41.75390625 C-5.02179258 42.6508752 -9.19846345 42.46538593 -13.4609375 42.31640625 C-14.01923236 51.98111059 -13.71584585 59.52844725 -9.65234375 68.546875 C-8.51037833 71.20147658 -7.77117755 73.4466858 -7.4609375 76.31640625 C-8.8984375 79.12890625 -8.8984375 79.12890625 -10.4609375 81.31640625 C-13.91956825 78.23289814 -15.72825889 75.20460548 -17.6484375 71.00390625 C-18.15761719 69.91464844 -18.66679688 68.82539063 -19.19140625 67.703125 C-21.39268953 61.83077853 -21.49891389 56.50967741 -21.19287109 50.35009766 C-20.71464219 42.6607524 -20.71464219 42.6607524 -22.9453125 35.4765625 C-24.6911541 33.5972578 -26.49324604 31.95690652 -28.4609375 30.31640625 C-31.03420171 25.9530452 -31.20317836 21.25426125 -30.4609375 16.31640625 C-28.04277705 8.84822701 -24.1442596 4.31459673 -17.4609375 0.31640625 C-12.57018228 -2.12897136 -5.15261074 -1.43128076 0 0 Z " fill="#040404" transform="translate(97.4609375,150.68359375)"/>
<path d="M0 0 C5.92930245 2.73747489 9.28192392 6.97552751 12.3515625 12.69140625 C14.67328257 19.77876225 13.84452439 24.51769163 10.90234375 31.140625 C9.5390625 33.31640625 9.5390625 33.31640625 6.90625 35.5078125 C3.54486472 39.49599074 4.04060355 42.53595644 4.3515625 47.56640625 C4.83031978 57.40840025 3.5883161 65.14793255 -1.0859375 73.87890625 C-1.41078125 74.50603516 -1.735625 75.13316406 -2.0703125 75.77929688 C-2.85788485 77.29653184 -3.65804354 78.80722321 -4.4609375 80.31640625 C-5.4509375 80.31640625 -6.4409375 80.31640625 -7.4609375 80.31640625 C-8.84829521 78.11295576 -9.48609162 76.75660328 -9.3359375 74.12890625 C-8.30059159 70.80100867 -6.90241971 67.73832498 -5.3984375 64.59765625 C-3.35694684 59.63002897 -3.33244147 54.80897174 -3.3984375 49.50390625 C-3.40294922 48.81103516 -3.40746094 48.11816406 -3.41210938 47.40429688 C-3.42380594 45.70829557 -3.44173826 44.01233922 -3.4609375 42.31640625 C-4.09 42.3628125 -4.7190625 42.40921875 -5.3671875 42.45703125 C-11.69136482 42.72371343 -16.30487139 42.13808672 -21.4609375 38.31640625 C-27.19913638 32.99697139 -29.98472882 28.39819492 -30.8984375 20.56640625 C-30.69623862 14.35771119 -27.90492172 8.62954619 -23.41796875 4.3828125 C-16.22429606 -1.08123397 -8.96837323 -2.49121479 0 0 Z " fill="#040404" transform="translate(431.4609375,150.68359375)"/>
<path d="M0 0 C6.04609719 2.68451466 10.87278494 7.89213122 13.71875 13.8125 C15.80138799 20.24618918 15.29691947 26.57913321 12.48828125 32.6953125 C8.9672585 38.96931621 4.418804 43.13034237 -2.44921875 45.3828125 C-10.44191187 46.47224905 -16.66419766 45.78365501 -23.35546875 41.15625 C-29.72194416 35.76375031 -31.93925834 29.82675324 -32.88671875 21.5703125 C-32.69768463 15.48577664 -29.77689069 9.9079209 -25.69921875 5.484375 C-18.13778738 -1.19706221 -9.93850143 -2.50443896 0 0 Z " fill="#F5F5F5" transform="translate(331.44921875,299.6171875)"/>
<path d="M0 0 C5.72391775 3.28158711 8.61912359 8.30074718 11.5 14.0625 C12.22978269 21.73120009 11.94729697 28.5778938 7.5 35.0625 C1.68746452 41.51812451 -3.60219077 44.04407266 -12.25 44.5625 C-18.89159549 44.43049313 -23.50330609 42.40944068 -28.5 38.0625 C-33.96424292 31.37698619 -34.98635788 25.17671429 -34.8984375 16.6484375 C-34.09270695 9.39686252 -30.0316418 4.95633199 -24.5 0.5 C-17.06345071 -3.98951879 -7.79553111 -3.36277812 0 0 Z " fill="#F7F7F7" transform="translate(203.5,300.9375)"/>
<path d="M0 0 C-1.33587626 2.95570689 -2.8268652 5.03894662 -5.0625 7.375 C-18.4473872 22.45382521 -27.42121199 42.47990374 -32 62 C-38.00009421 59.37578297 -42.47099554 54.09956329 -44.9375 48.0625 C-47.97680704 37.20783201 -47.11385847 24.60800108 -41.78125 14.74609375 C-32.22640269 -0.93978059 -16.90910062 -8.95422822 0 0 Z " fill="#030303" transform="translate(136,218)"/>
<path d="M0 0 C9.27091664 6.55910673 15.41235421 14.91508491 18 26 C19.14405635 36.3676929 18.8054858 46.53017522 12.3984375 55.15625 C10.99832679 56.82842013 9.50750936 58.42396749 8 60 C6.32201144 57.48301716 5.26722693 55.4111344 4.15234375 52.640625 C-4.07389072 32.58437126 -14.29501121 16.99848318 -29 1 C-21.26385676 -7.25641018 -9.03915609 -4.72327734 0 0 Z " fill="#030303" transform="translate(404,218)"/>
<path d="M0 0 C17.16 0 34.32 0 52 0 C50.90668517 7.65320378 48.96125624 12.40439819 43.22265625 17.61328125 C36.17005214 22.84486286 29.6800199 23.85501443 21 23 C13.84357025 21.30719013 8.36876234 17.94476149 4 12 C1.78709935 8.05355106 0 4.56780162 0 0 Z " fill="#090909" transform="translate(232,362)"/>
<path d="M0 0 C4.12593192 2.87855716 7.06537651 6.00862953 8.6875 10.875 C9.2689719 16.80601336 8.21431767 21.12621452 4.6875 25.875 C0.93938982 29.37774857 -2.79719115 31.16878234 -7.9375 31.4375 C-13.44561167 31.10568604 -16.61049739 28.39300233 -20.625 24.8125 C-24.01105442 20.92480789 -23.64812204 16.50988977 -23.58984375 11.6015625 C-23.06089023 6.4014279 -20.41681391 3.87414116 -16.6875 0.5 C-11.07455999 -2.20252667 -5.84833338 -1.98622643 0 0 Z " fill="#030303" transform="translate(330.3125,307.125)"/>
<path d="M0 0 C5.00230198 2.45567552 8.49851535 5.9970307 11 11 C11.85885972 16.91386267 11.08337443 21.37230115 7.61328125 26.26953125 C3.85551054 30.30026351 -0.65963143 32.16559886 -6.125 32.5 C-11.73968951 31.77552393 -14.57719035 29.57662691 -18.3125 25.4375 C-21.61809221 20.66275569 -21.75987996 15.62652687 -21 10 C-19.3330214 6.27177816 -16.86088948 3.78492865 -13.875 1.0625 C-9.27289311 -0.63827863 -4.83928988 -0.64049425 0 0 Z " fill="#030303" transform="translate(197,306)"/>
</svg>
