<?xml version="1.0" encoding="UTF-8"?>
<svg version="1.1" xmlns="http://www.w3.org/2000/svg" width="512" height="512">
<path d="M0 0 C0.82689331 0.0195575 1.65378662 0.03911499 2.5057373 0.05926514 C30.57422226 0.73846523 55.55685433 1.63627147 76.46875 23.0234375 C93.4593347 42.3996865 97.59378827 66.54880672 96.0625 91.5625 C95.3452918 97.0990103 93.86337269 102.27868951 92.0625 107.5625 C91.77375 108.47644531 91.485 109.39039063 91.1875 110.33203125 C84.96101456 127.98300559 70.93869174 141.82273335 54.64453125 150.3515625 C30.41659352 161.46630003 0.5670643 160.7804788 -25.625 160.75 C-26.95537292 160.74959213 -26.95537292 160.74959213 -28.31262207 160.74917603 C-106.70960559 160.63952621 -106.70960559 160.63952621 -131.62890625 136.99609375 C-144.27572917 123.66450208 -153.14026398 105.13145554 -153.9375 86.5625 C-153.9890625 85.50160156 -154.040625 84.44070313 -154.09375 83.34765625 C-154.68841811 59.73437661 -147.68347876 38.45194795 -131.46899414 20.91699219 C-100.7016137 -10.56686771 -40.05144502 -0.97312657 0 0 Z M-112.875 52.4375 C-117.2393772 59.05019273 -119.04703185 64.69715202 -117.9375 72.5625 C-116.17850926 77.99078324 -113.23162755 81.80513839 -108.9375 85.5625 C-108.31875 86.119375 -107.7 86.67625 -107.0625 87.25 C-101.72470264 90.54687484 -96.50173801 90.95767396 -90.4296875 90.1640625 C-83.66103487 88.5302498 -78.82314416 84.22443863 -74.9375 78.5625 C-71.61007045 72.56794794 -71.47669704 67.19744473 -72.9375 60.5625 C-74.1290405 57.26121355 -74.1290405 57.26121355 -75.9375 54.5625 C-76.453125 53.716875 -76.96875 52.87125 -77.5 52 C-82.27036598 47.22963402 -88.15392356 44.31198766 -94.9375 43.9375 C-101.78088889 44.32547165 -108.27241567 47.31126836 -112.875 52.4375 Z M16.4375 54.5625 C12.66813906 60.04520682 12.15797313 66.08799187 13.0625 72.5625 C15.39717175 79.94657808 19.29488868 84.82729914 26.0625 88.5625 C31.77716884 90.99652562 37.08750418 91.00474037 43.0625 89.5625 C49.31380011 86.83980831 54.21300705 82.57437004 57.1015625 76.30859375 C59.38078382 69.97632235 59.28601637 64.90282391 57.0625 58.5625 C53.96542077 52.59775481 49.24109619 48.08269818 43.1875 45.1875 C32.08531624 42.96706325 23.58469293 45.56233113 16.4375 54.5625 Z M-61.9375 103.5625 C-62.58858195 112.24359269 -58.69742843 119.2254696 -54.1875 126.3125 C-47.11832621 133.38167379 -38.4728922 137.51346934 -28.4375 137.9375 C-17.74676576 137.48498215 -9.90876693 132.96704294 -2.6875 125.3125 C2.83385844 118.46360182 4.7504162 111.23024409 4.0625 102.5625 C2.27377113 100.77377113 -0.3863887 101.42552636 -2.80249023 101.41723633 C-4.05726669 101.41085648 -5.31204315 101.40447662 -6.60484314 101.39790344 C-7.98525962 101.39637488 -9.36567662 101.39526086 -10.74609375 101.39453125 C-12.15234919 101.39132033 -13.55860429 101.38795638 -14.96485901 101.38444519 C-17.91644058 101.37844768 -20.86799284 101.37660592 -23.81958008 101.37719727 C-27.60730046 101.37729891 -31.39483347 101.36364715 -35.18250942 101.34642506 C-38.08808765 101.33532258 -40.99362033 101.33327752 -43.89921761 101.33380699 C-45.29590564 101.3326242 -46.69259476 101.32818579 -48.08926201 101.32047462 C-50.04052201 101.31071075 -51.99183664 101.31480766 -53.94311523 101.31958008 C-55.05484604 101.31815506 -56.16657684 101.31673004 -57.31199646 101.31526184 C-60.09604078 101.29590822 -60.09604078 101.29590822 -61.9375 103.5625 Z " fill="#000000" transform="translate(286.9375,254.4375)"/>
<path d="M0 0 C1.2080127 0.2935437 1.2080127 0.2935437 2.44042969 0.59301758 C5.29894718 1.31336607 8.14898377 2.06304524 11 2.8125 C29.12251248 7.44496732 47.36772191 10.43164081 66 12 C67.85625 12.16822266 67.85625 12.16822266 69.75 12.33984375 C109.15990912 15.38743206 150.12137875 12.06344836 188.3503418 1.79199219 C189.29176025 1.54352539 190.23317871 1.29505859 191.203125 1.0390625 C192.01426758 0.81428223 192.82541016 0.58950195 193.66113281 0.35791016 C196.41978481 -0.06423847 198.3304339 0.20784063 201 1 C203.10255227 2.6556883 204.96853626 4.27073051 206.875 6.125 C207.40528809 6.62926514 207.93557617 7.13353027 208.48193359 7.65307617 C209.53043457 8.65330569 210.57500915 9.65767049 211.61523438 10.66650391 C212.71882761 11.72923773 213.84758132 12.76582643 214.984375 13.79296875 C241.54284108 38.39116709 253.4943535 81.5739599 255.12109375 116.60791016 C256.12607689 145.6066986 250.7063974 172.88203905 232 196 C231.28457031 196.89203125 230.56914062 197.7840625 229.83203125 198.703125 C204.15384202 228.81155458 162.99552733 240.3998999 124.95495605 243.78436279 C120.38074459 244.11816477 115.819338 244.18196841 111.234375 244.203125 C110.23907776 244.20882507 109.24378052 244.21452515 108.21832275 244.22039795 C106.12081948 244.22978064 104.02330192 244.23635487 101.92578125 244.24023438 C98.79919885 244.24984871 95.6733013 244.28089999 92.546875 244.3125 C49.17327144 244.54087666 3.83111185 234.40608905 -28.125 203.375 C-49.82865706 181.50562099 -58.40480781 152.49989499 -58.30249023 122.15649414 C-57.58099377 80.6486346 -45.88053716 37.01007707 -16 7 C-15.19046875 6.15566406 -14.3809375 5.31132812 -13.546875 4.44140625 C-12.78890625 3.69761719 -12.0309375 2.95382813 -11.25 2.1875 C-10.59515625 1.54167969 -9.9403125 0.89585937 -9.265625 0.23046875 C-5.98253262 -1.55259004 -3.46683878 -0.84482922 0 0 Z M47.3125 35.75 C46.04148437 35.8116333 44.77046875 35.8732666 43.4609375 35.93676758 C31.85681364 36.69509896 20.20912919 39.18185064 9.8125 44.5625 C9.15451416 44.89765625 8.49652832 45.2328125 7.81860352 45.578125 C0.8545503 49.31975233 -4.55434193 54.33685021 -10 60 C-10.66386719 60.65613281 -11.32773438 61.31226563 -12.01171875 61.98828125 C-27.3329769 78.06699486 -33.54621177 101.22311172 -33.35351562 122.91894531 C-32.7436867 144.34136419 -25.08469788 163.8595474 -11 180 C-10.48050781 180.61488281 -9.96101563 181.22976563 -9.42578125 181.86328125 C4.51585987 197.13938676 25.28888822 203.61573111 45.1875 205.625 C46.29158203 205.74617187 47.39566406 205.86734375 48.53320312 205.9921875 C65.53447635 207.79728518 82.41566472 208.23932837 99.5 208.25 C100.62162537 208.25100708 101.74325073 208.25201416 102.89886475 208.25305176 C140.25308706 208.23044387 177.75546916 207.75695557 206.625 180.875 C223.11619004 163.67578034 230.2529573 140.48197198 230 117 C229.15996454 95.81802799 221.25738136 75.69596398 207 60 C206.45988281 59.36707031 205.91976562 58.73414063 205.36328125 58.08203125 C190.6439602 41.87965518 169.34467896 36.89075964 148.40904236 35.87419128 C131.10367073 35.08577447 113.82220529 34.79702313 96.5 34.8125 C95.24150238 34.81310425 93.98300476 34.8137085 92.68637085 34.81433105 C77.55046457 34.83398885 62.42875229 34.93010297 47.3125 35.75 Z " fill="#000000" transform="translate(160,213)"/>
<path d="M0 0 C0.77810532 0.30018036 1.55621063 0.60036072 2.3578949 0.90963745 C4.05849512 1.56698434 5.75732931 2.22891398 7.45458984 2.89483643 C11.18923317 4.35988123 14.93244636 5.802457 18.67501831 7.24710083 C20.68664256 8.02397999 22.69780188 8.80206397 24.70852661 9.58126831 C35.21641882 13.65135839 45.75990726 17.62530794 56.30688477 21.59277344 C61.86991743 23.68609873 67.43101102 25.78456206 72.9921875 27.8828125 C74.12441742 28.30995544 75.25664734 28.73709839 76.42318726 29.17718506 C89.07128204 33.94949475 101.71682906 38.72850596 114.35888672 43.51678467 C116.84700386 44.45910171 119.33550923 45.40037178 121.82421875 46.34112549 C136.30662017 51.81624596 150.74097666 57.38632054 165.08984375 63.203125 C162.46388379 65.82908496 160.39026334 66.04481839 156.77954102 66.91699219 C155.79588137 67.15768401 155.79588137 67.15768401 154.79234982 67.4032383 C152.58190318 67.94226855 150.36912327 68.47102738 148.15625 69 C146.56857275 69.38516359 144.98105205 69.77097297 143.39367676 70.15737915 C139.05657657 71.21109915 134.7173563 72.25581693 130.37752151 73.29821014 C124.87931045 74.6195405 119.38269741 75.94750392 113.88578892 77.27424049 C112.47997515 77.61353616 112.47997515 77.61353616 111.04576111 77.95968628 C110.09917067 78.18816128 109.15258022 78.41663628 108.17730522 78.65203476 C105.24373038 79.35967071 102.30986827 80.06610711 99.37599182 80.77249146 C85.88157948 84.02502271 72.40615353 87.34947899 58.93728828 90.70608521 C52.71015689 92.25521438 46.47993028 93.79184513 40.24952602 95.32775116 C35.209774 96.57114253 30.17225622 97.82243511 25.13894653 99.0916748 C20.38168112 100.29105252 15.61967112 101.46936781 10.85340881 102.63245773 C9.10334353 103.06349318 7.35513675 103.50216043 5.60908508 103.94917679 C3.2075955 104.56288695 0.80078692 105.14844033 -1.60913086 105.72802734 C-2.29185279 105.9095573 -2.97457472 106.09108727 -3.67798519 106.27811813 C-9.75034987 107.68508318 -14.9109187 106.61071766 -20.91015625 105.203125 C-22.0567336 104.93473375 -23.20331095 104.66634251 -24.38463306 104.38981819 C-28.42296402 103.41758963 -32.45146493 102.41078664 -36.47924805 101.39599609 C-38.01772092 101.0111659 -39.55627197 100.62664813 -41.09489441 100.24241638 C-45.23953488 99.20647001 -49.38307836 98.16619792 -53.52642798 97.12510252 C-57.86860975 96.03484452 -62.21180231 94.94862799 -66.55488586 93.86196899 C-74.76465299 91.8072032 -82.97351433 89.74884272 -91.18205053 87.68916571 C-100.53329958 85.34294839 -109.88556022 83.000776 -119.23790491 80.65893054 C-138.46311182 75.84480539 -157.68705278 71.02564196 -176.91015625 66.203125 C-176.91015625 65.543125 -176.91015625 64.883125 -176.91015625 64.203125 C-153.36138337 54.45801768 -129.8037815 44.73573746 -106.20986938 35.10037231 C-92.73484615 29.59651094 -79.27431503 24.05848339 -65.82348633 18.49575806 C-62.88736818 17.28204091 -59.950634 16.0698276 -57.01367188 14.8581543 C-45.62387832 10.15969435 -45.62387832 10.15969435 -34.25404358 5.41322327 C-32.30691159 4.59621417 -30.35807973 3.78343362 -28.40844727 2.97241211 C-26.16708408 2.03904522 -23.92895292 1.09785546 -21.69506836 0.14672852 C-20.25466187 -0.44990601 -20.25466187 -0.44990601 -18.78515625 -1.05859375 C-17.57472656 -1.56845825 -17.57472656 -1.56845825 -16.33984375 -2.08862305 C-10.33399421 -3.83932336 -5.62303501 -2.23907326 0 0 Z " fill="#000000" transform="translate(267.91015625,57.796875)"/>
<path d="M0 0 C6.27253631 0.69694848 11.91331296 1.56422081 17.94116211 3.14892578 C18.78472763 3.36525665 19.62829315 3.58158752 20.49742126 3.80447388 C22.31331814 4.27065626 24.12854809 4.73944288 25.9431591 5.21060562 C28.82224547 5.95695239 31.70360796 6.6938121 34.58583069 7.427948 C42.77500336 9.51475958 50.96140984 11.61202434 59.14233398 13.73095703 C64.16120337 15.03017489 69.18401701 16.3130512 74.20965767 17.58581161 C76.11487667 18.07167781 78.01855163 18.56364336 79.92054558 19.06198502 C82.58650966 19.75998708 85.25703353 20.43702889 87.92944336 21.10986328 C88.70221619 21.31760376 89.47498901 21.52534424 90.2711792 21.73937988 C99.24501365 23.94645726 107.57831729 22.07979572 116.38110352 19.86694336 C117.6976165 19.54485649 117.6976165 19.54485649 119.04072571 19.21626282 C121.90507118 18.51385963 124.76694724 17.80190195 127.62890625 17.08984375 C129.62988526 16.59739638 131.63102217 16.10559021 133.63230896 15.61439514 C138.87267025 14.32655185 144.1110237 13.03072607 149.34893799 11.73297119 C155.73930393 10.15112774 162.13182791 8.578033 168.52422237 7.00441074 C173.49056716 5.78178472 178.45650599 4.55758904 183.42127991 3.32859802 C184.32889069 3.10434143 185.23650146 2.88008484 186.1716156 2.64903259 C187.87302068 2.22862395 189.57420911 1.80733724 191.27514648 1.38504028 C196.88718921 0 196.88718921 0 198 0 C198 20.13 198 40.26 198 61 C169.07039707 67.9431047 169.07039707 67.9431047 159.625 69.25 C158.54017334 69.40637939 157.45534668 69.56275879 156.33764648 69.72387695 C153.22692709 70.1642575 150.11412835 70.58453778 147 71 C146.20062012 71.11327637 145.40124023 71.22655273 144.57763672 71.34326172 C101.83098075 77.33100972 39.43561929 78.71780964 0 59 C0 39.53 0 20.06 0 0 Z " fill="#000000" transform="translate(157,147)"/>
<path d="M0 0 C6.0052786 3.33731338 9.47516464 7.28608815 11.6875 13.875 C12.55772832 21.21122709 12.28541578 27.86955898 7.6875 33.875 C3.6828211 38.03763608 -0.39152735 41.68581783 -6.328125 42.0703125 C-7.39546875 42.04710937 -8.4628125 42.02390625 -9.5625 42 C-10.64015625 41.98195312 -11.7178125 41.96390625 -12.828125 41.9453125 C-14.05789062 41.91050781 -14.05789062 41.91050781 -15.3125 41.875 C-15.05119113 53.01982349 -14.70621559 63.28442662 -8.3125 72.875 C-8.48718344 76.28132707 -9.08478739 77.61968586 -11.375 80.1875 C-12.014375 80.744375 -12.65375 81.30125 -13.3125 81.875 C-21.91323214 70.52203357 -23.88371072 60.08076203 -23.6340332 46.06005859 C-23.66493818 39.85496705 -24.44796121 36.76357468 -28.8671875 32.34960938 C-32.30314128 28.84400788 -32.62576541 24.77284905 -32.6875 20.0625 C-32.54205608 12.66304059 -30.70672364 8.26922364 -25.5 3.0625 C-17.1594953 -2.66137577 -9.32643032 -4.30237113 0 0 Z " fill="#000000" transform="translate(99.3125,151.125)"/>
<path d="M0 0 C5.7957881 3.19452887 9.65649093 7.71947278 11.75 14 C12.42183887 21.43428261 12.28918177 27.83567907 7.75 34 C7.05390625 34.5053125 6.3578125 35.010625 5.640625 35.53125 C2.54423998 39.5744635 3.24568484 44.05325354 3.25 49 C2.96196912 62.01899575 0.71517468 71.48596942 -7.25 82 C-10.52627281 79.14647207 -11.88688729 77.35735248 -12.25 73 C-11.2890625 70.46484375 -11.2890625 70.46484375 -9.875 67.9375 C-7.43195021 63.50861924 -6.20145025 59.94163321 -5.93359375 54.890625 C-5.89169922 54.13652344 -5.84980469 53.38242188 -5.80664062 52.60546875 C-5.76732422 51.82816406 -5.72800781 51.05085938 -5.6875 50.25 C-5.64431641 49.45722656 -5.60113281 48.66445312 -5.55664062 47.84765625 C-5.45097009 45.89862185 -5.35002034 43.94933252 -5.25 42 C-6.0234375 42.05800781 -6.796875 42.11601562 -7.59375 42.17578125 C-14.93294817 42.49369206 -19.6724859 41.94341157 -25.25 37 C-30.29093052 32.07510113 -32.53269961 27.23001975 -32.625 20.1875 C-32.47955608 12.78804059 -30.64422364 8.39422364 -25.4375 3.1875 C-17.15287489 -2.49802703 -9.3200041 -4.14845295 0 0 Z " fill="#000000" transform="translate(433.25,151)"/>
<path d="M0 0 C-0.55762154 3.90335076 -2.34375322 5.67211948 -5.0625 8.4375 C-10.32730018 14.13616644 -14.21186271 20.24994466 -18 27 C-18.58523437 28.03382813 -19.17046875 29.06765625 -19.7734375 30.1328125 C-25.51033878 40.90572667 -29.18582406 52.43944638 -33 64 C-40.51399365 59.72808483 -44.61119484 54.39516874 -47.3046875 46.15625 C-50.03120694 33.77968984 -47.80631466 22.89057625 -41.25 12.25 C-31.29281137 -1.66517112 -16.00928596 -7.38890121 0 0 Z " fill="#000000" transform="translate(137,217)"/>
<path d="M0 0 C9.05064899 6.19254931 14.85294277 14.8917015 17.6640625 25.5078125 C19.09472073 36.12130032 18.74610504 46.6074945 12.17578125 55.45703125 C10.51261655 57.38333357 8.81670164 59.21902002 7 61 C4.20605059 57.6913757 2.87067995 54.35783321 1.375 50.3125 C-6.00861887 31.19736756 -16.95686578 15.80435084 -31 1 C-23.146123 -7.30917422 -9.10167518 -5.34450367 0 0 Z " fill="#000000" transform="translate(405,218)"/>
<path d="M0 0 C17.49 0 34.98 0 53 0 C50.91271602 9.3927779 49.03621192 14.57983597 41.0625 19.875 C33.57207608 24.10438385 26.45918538 24.99659773 18.125 23 C10.7913377 20.61879562 5.09391523 15.58649033 1.4375 8.8125 C-0.14852799 5.46421869 0 4.07232225 0 0 Z " fill="#000000" transform="translate(232,362)"/>
<path d="M0 0 C4.66808855 3.11205903 7.60396594 6.41349468 9.25 11.75 C10.25723757 16.82492773 9.46500415 21.2541864 6.69921875 25.640625 C4.39341589 28.58177292 2.27149913 30.52574502 -1.1875 31.875 C-6.72782503 32.53860439 -11.62004144 32.63073895 -16.6875 30.1875 C-21.768104 25.4879413 -23.84723096 22.41379797 -24.5 15.625 C-24.11259604 10.97615244 -22.88770218 7.67344955 -20.1875 3.875 C-13.93173451 -1.10407866 -7.5983893 -2.68178446 0 0 Z " fill="#000000" transform="translate(199.1875,306.125)"/>
<path d="M0 0 C4.41026006 2.45014448 7.08812558 5.30125117 9.375 9.875 C10.09718508 17.01397709 9.82460235 22.13735486 5.375 27.875 C1.59414991 31.56132884 -1.50628869 32.1786138 -6.625 32.375 C-11.74321229 32.19130179 -14.76557744 31.44496587 -18.625 27.875 C-22.62763619 23.43964639 -24.00263255 20.11716389 -23.90234375 14.06640625 C-23.20921455 8.58970932 -20.8277364 4.83228 -16.5625 1.4375 C-10.83385668 -1.6096507 -6.2233572 -1.93138672 0 0 Z " fill="#000000" transform="translate(329.625,306.125)"/>
</svg>
